<svg xmlns="http://www.w3.org/2000/svg" viewBox="9246 1420 470.099 538.2">
  <defs>
    <style>
      .cls-1 {
        opacity: 0.07;
      }
    </style>
  </defs>
  <g id="basketball_court" data-name="basketball court" class="cls-1" transform="translate(9246 1420)">
    <g id="Group_194" data-name="Group 194" transform="translate(193.952 430.787)">
      <path id="Path_180" data-name="Path 180" d="M811.157,1892.513l-7.457-12.428A469.852,469.852,0,0,0,917.387,1785.1l10.932,9.484a475.788,475.788,0,0,1-54.3,53.284A494.931,494.931,0,0,1,811.157,1892.513Z" transform="translate(-803.7 -1785.1)"/>
    </g>
    <g id="Group_195" data-name="Group 195" transform="translate(155.605 430.811)">
      <path id="Path_181" data-name="Path 181" d="M761.987,1892.589a495.748,495.748,0,0,1-62.889-44.621,475.782,475.782,0,0,1-54.3-53.284l10.932-9.484a470.314,470.314,0,0,0,113.688,94.985Z" transform="translate(-644.8 -1785.2)"/>
    </g>
    <g id="basketball_net_1_">
      <g id="Group_196" data-name="Group 196" transform="translate(113.543 259.375)">
        <path id="Path_182" data-name="Path 182" d="M695.534,1111.481H488.841a18.341,18.341,0,0,1,0-36.681H695.534a18.341,18.341,0,0,1,0,36.681ZM488.841,1089.3a3.861,3.861,0,0,0,0,7.723H695.534a3.861,3.861,0,0,0,0-7.723Z" transform="translate(-470.5 -1074.8)"/>
      </g>
      <g id="Group_197" data-name="Group 197" transform="translate(118.755 281.528)">
        <path id="Path_183" data-name="Path 183" d="M679.174,1417.649c-.121-1.5-2.9-37.164-.6-85.525a648.6,648.6,0,0,1,8.47-79.854c4.609-26.473,10.884-50.34,18.727-71.094l-95.444-.1h-1.182l-95.443.1c7.819,20.754,14.117,44.621,18.727,71.094a648.09,648.09,0,0,1,8.47,79.854c2.317,48.361-.483,84.029-.6,85.525l-14.431-1.158h0a742.384,742.384,0,0,0,.555-83.884c-2.1-43.559-9-105.965-30.069-155.847l-4.247-10.039,117.645-.121h.6l117.018.121-4.247,10.039c-21.068,49.857-27.993,112.264-30.069,155.847a741.56,741.56,0,0,0,.555,83.884Z" transform="translate(-492.1 -1166.6)"/>
      </g>
      <g id="Group_198" data-name="Group 198" transform="translate(228.558 281.504)">
        <path id="Path_184" data-name="Path 184" d="M947.1,1181v-14.5h7.843v7.24h0v7.24Z" transform="translate(-947.1 -1166.5)"/>
      </g>
      <g id="Group_199" data-name="Group 199" transform="translate(229.764 281.504)">
        <path id="Path_185" data-name="Path 185" d="M966.579,1181l-7.867-.024v-7.24h0l.024-7.24h7.843Z" transform="translate(-952.1 -1166.5)"/>
      </g>
      <g id="Group_200" data-name="Group 200" transform="translate(135.286 282.397)">
        <path id="Path_186" data-name="Path 186" d="M570.687,1211.563,560.6,1201.186c9.556-9.291,18.847-19.161,27.583-29.273l.917-1.062,1.231-.652,3.306,6.419,6.443,3.33-1.207,1.207.241.217C590.114,1191.8,580.533,1201.958,570.687,1211.563Z" transform="translate(-560.6 -1170.2)"/>
      </g>
      <g id="Group_201" data-name="Group 201" transform="translate(146.483 283.966)">
        <path id="Path_187" data-name="Path 187" d="M616.532,1262.684,607,1251.776a463.007,463.007,0,0,0,68.343-74.521l.193-.29.241-.265a6.128,6.128,0,0,0-.869,1.207l12.6,7.119c-.169.29-.362.579-.555.845A476.561,476.561,0,0,1,616.532,1262.684Z" transform="translate(-607 -1176.7)"/>
      </g>
      <g id="Group_202" data-name="Group 202" transform="translate(153.385 284.255)">
        <path id="Path_188" data-name="Path 188" d="M644.432,1311.569l-8.832-11.463A466.943,466.943,0,0,0,745.716,1178.6l.217-.362.265-.338,5.454,4.392,6.4,3.861-6.2-3.74,6.274,3.62-.217.362a490.178,490.178,0,0,1-51.378,67.86A475.748,475.748,0,0,1,644.432,1311.569Z" transform="translate(-635.6 -1177.9)"/>
      </g>
      <g id="Group_203" data-name="Group 203" transform="translate(156.788 284.472)">
        <path id="Path_189" data-name="Path 189" d="M657.76,1360.468l-8.06-12.018c63.806-42.787,115.16-99.546,152.613-168.733l.266-.483.338-.434,5.719,4.344,7.095,1.713-.8,1.714.121.072a498.534,498.534,0,0,1-68.391,97.133A483.161,483.161,0,0,1,657.76,1360.468Z" transform="translate(-649.7 -1178.8)"/>
      </g>
      <g id="Group_204" data-name="Group 204" transform="translate(157.295 349.799)">
        <path id="Path_190" data-name="Path 190" d="M657.35,1614.276H655.42v-7.24l-3.62-6.274c65.568-37.815,119.479-88.687,160.263-151.262l12.139,7.915a483.43,483.43,0,0,1-72.976,87.576,493,493,0,0,1-92.186,68.319Z" transform="translate(-651.8 -1449.5)"/>
      </g>
      <g id="Group_205" data-name="Group 205" transform="translate(231.164 281.504)">
        <path id="Path_191" data-name="Path 191" d="M972.379,1181l-7.843-.024v-7.24h0v-7.24h7.843Z" transform="translate(-957.9 -1166.5)"/>
      </g>
      <g id="Group_206" data-name="Group 206" transform="translate(229.957 281.504)">
        <path id="Path_192" data-name="Path 192" d="M952.9,1181v-14.5h7.843l.024,7.24h0v7.24Z" transform="translate(-952.9 -1166.5)"/>
      </g>
      <g id="Group_207" data-name="Group 207" transform="translate(299.507 282.445)">
        <path id="Path_193" data-name="Path 193" d="M1270.421,1211.715c-9.532-9.267-18.8-19.089-27.559-29.176l-.724-.386-1.038-1.907,6.347-3.475,3.427-6.371,1.182.627.869,1.014c8.736,10.136,18.027,19.982,27.583,29.273Z" transform="translate(-1241.1 -1170.4)"/>
      </g>
      <g id="Group_208" data-name="Group 208" transform="translate(247.14 283.99)">
        <path id="Path_194" data-name="Path 194" d="M1095.146,1262.76a477.471,477.471,0,0,1-70.443-76.789,7.507,7.507,0,0,1-.6-.917l12.694-6.974a5.911,5.911,0,0,0-.917-1.279l.241.265.193.29a464.2,464.2,0,0,0,68.343,74.521Z" transform="translate(-1024.1 -1176.8)"/>
      </g>
      <g id="Group_209" data-name="Group 209" transform="translate(198.296 284.255)">
        <path id="Path_195" data-name="Path 195" d="M935.388,1311.569a477.423,477.423,0,0,1-62.093-57.314,488.268,488.268,0,0,1-51.378-67.86l-.217-.362,5.961-3.427,6.516-3.934a5.671,5.671,0,0,0-.555-.772l.265.338.217.362A466.6,466.6,0,0,0,944.22,1300.107ZM834.176,1178.721l.072.121A.524.524,0,0,0,834.176,1178.721Z" transform="translate(-821.7 -1177.9)"/>
      </g>
      <g id="Group_210" data-name="Group 210" transform="translate(151.382 284.472)">
        <path id="Path_196" data-name="Path 196" d="M785.271,1360.469a481.463,481.463,0,0,1-88.9-76.717,499.215,499.215,0,0,1-68.126-96.65l-.579-.772-.362-1.5,7.047-1.689,5.768-4.344.338.434.265.483c37.478,69.163,88.807,125.923,152.613,168.734Z" transform="translate(-627.3 -1178.8)"/>
      </g>
      <g id="Group_211" data-name="Group 211" transform="translate(144.505 349.799)">
        <path id="Path_197" data-name="Path 197" d="M767.582,1614.276h-1.931l-1.689-.965a493,493,0,0,1-92.186-68.319,483.433,483.433,0,0,1-72.976-87.576l12.139-7.915c40.784,62.575,94.7,113.446,160.263,151.262l-3.62,6.274Z" transform="translate(-598.8 -1449.5)"/>
      </g>
      <g id="Group_212" data-name="Group 212" transform="translate(130.435 118.586)">
        <path id="Path_198" data-name="Path 198" d="M749.969,639.524H737.517V505.879H552.952V639.524H540.5V491.4H749.969Z" transform="translate(-540.5 -491.4)"/>
      </g>
      <g id="Group_213" data-name="Group 213">
        <path id="Path_199" data-name="Path 199" d="M470.1,357.642H0V0H470.1ZM14.479,343.162h441.14V14.479H14.479Z"/>
      </g>
    </g>
  </g>
</svg>
