<svg xmlns="http://www.w3.org/2000/svg" viewBox="8270 667 989.883 713">
  <defs>
    <style>
      .cls-1 {
        opacity: 0.07;
      }

      .cls-2 {
        fill: #fff;
      }
    </style>
  </defs>
  <g id="Group_187" data-name="Group 187" class="cls-1" transform="translate(8270 667)">
    <g id="Group_181" data-name="Group 181">
      <path id="Path_146" data-name="Path 146" class="cls-2" d="M1365.373,1111a50.373,50.373,0,1,0,50.373,50.373A50.369,50.369,0,0,0,1365.373,1111Zm0,85.871a35.5,35.5,0,1,1,35.5-35.5A35.537,35.537,0,0,1,1365.373,1196.871Z" transform="translate(-870.432 -735.399)"/>
      <path id="Path_147" data-name="Path 147" class="cls-2" d="M1241.593,924a113.593,113.593,0,1,0,113.593,113.593A113.579,113.579,0,0,0,1241.593,924Zm35.4,197.4A91.49,91.49,0,1,1,1305.9,1101.9,90.333,90.333,0,0,1,1276.99,1121.4Z" transform="translate(-746.652 -611.619)"/>
      <path id="Path_148" data-name="Path 148" class="cls-2" d="M1011.243,632.8A174.447,174.447,0,1,0,1185.69,807.243,174.437,174.437,0,0,0,1011.243,632.8Zm0,335.032a160.042,160.042,0,1,1,62.51-12.61A160.082,160.082,0,0,1,1011.243,967.829Zm0-335.032A174.447,174.447,0,1,0,1185.69,807.243,174.437,174.437,0,0,0,1011.243,632.8Zm0,335.032a160.042,160.042,0,1,1,62.51-12.61A160.082,160.082,0,0,1,1011.243,967.829Zm0-335.032A174.447,174.447,0,1,0,1185.69,807.243,174.437,174.437,0,0,0,1011.243,632.8Zm0,335.032a160.042,160.042,0,1,1,62.51-12.61A160.082,160.082,0,0,1,1011.243,967.829Zm0-335.032A174.447,174.447,0,1,0,1185.69,807.243,174.437,174.437,0,0,0,1011.243,632.8Zm0,335.032a160.042,160.042,0,1,1,62.51-12.61A160.082,160.082,0,0,1,1011.243,967.829Zm0-391.829C883.519,576,780,679.518,780,807.243s103.519,231.243,231.243,231.243,231.243-103.519,231.243-231.243S1138.968,576,1011.243,576Zm167.381,344.059a203.255,203.255,0,0,1-54.565,54.531,202.2,202.2,0,0,1-191.384,18.594,202.361,202.361,0,0,1-88.812-73.126,202.2,202.2,0,0,1-18.594-191.384,202.866,202.866,0,0,1,73.126-88.846,202.2,202.2,0,0,1,191.384-18.594,201.47,201.47,0,0,1,64.167,43.274,204.838,204.838,0,0,1,24.679,29.886,201.649,201.649,0,0,1,0,225.665ZM1011.243,632.8A174.447,174.447,0,1,0,1185.69,807.243,174.437,174.437,0,0,0,1011.243,632.8Zm0,335.032a160.042,160.042,0,1,1,62.51-12.61A160.082,160.082,0,0,1,1011.243,967.829Zm0-335.032A174.447,174.447,0,1,0,1185.69,807.243,174.437,174.437,0,0,0,1011.243,632.8Zm0,335.032a160.042,160.042,0,1,1,62.51-12.61A160.082,160.082,0,0,1,1011.243,967.829Zm0-335.032A174.447,174.447,0,1,0,1185.69,807.243,174.437,174.437,0,0,0,1011.243,632.8Zm0,335.032a160.042,160.042,0,1,1,62.51-12.61A160.082,160.082,0,0,1,1011.243,967.829Z" transform="translate(-516.302 -381.269)"/>
      <path id="Path_149" data-name="Path 149" d="M2420,120v3.009h77.757V120Z" transform="translate(-1601.859 -79.431)"/>
      <path id="Path_150" data-name="Path 150" d="M953.371,40.569H914.493V16.9c0-9.331-8.114-16.9-18.121-16.9H817.634c-9.973,0-18.087,7.573-18.087,16.9V40.569H36.512C16.363,40.569,0,55.816,0,74.647V678.922C0,697.753,16.363,713,36.512,713H953.371c20.149,0,36.512-15.247,36.512-34.078V74.647C989.883,55.816,973.521,40.569,953.371,40.569ZM818.141,17.343H895.9v26.2H818.141Zm142.33,661.579a6.88,6.88,0,0,1-7.1,6.626H36.512a6.88,6.88,0,0,1-7.1-6.626V173.77H960.471Zm0-532.6H29.413V74.647a6.88,6.88,0,0,1,7.1-6.626H953.371a6.88,6.88,0,0,1,7.1,6.626Z"/>
    </g>
    <g id="Group_182" data-name="Group 182" transform="translate(263.698 194.731)">
      <path id="Path_151" data-name="Path 151" class="cls-2" d="M1365.373,1111a50.373,50.373,0,1,0,50.373,50.373A50.369,50.369,0,0,0,1365.373,1111Zm0,85.871a35.5,35.5,0,1,1,35.5-35.5A35.537,35.537,0,0,1,1365.373,1196.871Z" transform="translate(-1134.13 -930.13)"/>
      <path id="Path_152" data-name="Path 152" class="cls-2" d="M1241.593,924a113.593,113.593,0,1,0,113.593,113.593A113.579,113.579,0,0,0,1241.593,924Zm35.4,197.4A91.49,91.49,0,1,1,1305.9,1101.9,90.333,90.333,0,0,1,1276.99,1121.4Z" transform="translate(-1010.35 -806.35)"/>
      <path id="Path_153" data-name="Path 153" class="cls-2" d="M1040.037,661.59a174.447,174.447,0,1,0,174.447,174.447A174.437,174.437,0,0,0,1040.037,661.59Zm0,335.032a160.042,160.042,0,1,1,62.51-12.61A160.082,160.082,0,0,1,1040.037,996.623Zm0-335.032a174.447,174.447,0,1,0,174.447,174.447A174.437,174.437,0,0,0,1040.037,661.59Zm0,335.032a160.042,160.042,0,1,1,62.51-12.61A160.082,160.082,0,0,1,1040.037,996.623Zm0-335.032a174.447,174.447,0,1,0,174.447,174.447A174.437,174.437,0,0,0,1040.037,661.59Zm0,335.032a160.042,160.042,0,1,1,62.51-12.61A160.082,160.082,0,0,1,1040.037,996.623Zm0-335.032a174.447,174.447,0,1,0,174.447,174.447A174.437,174.437,0,0,0,1040.037,661.59Zm0,335.032a160.042,160.042,0,1,1,62.51-12.61A160.082,160.082,0,0,1,1040.037,996.623Zm199.532-244.868a217.365,217.365,0,1,0,17.005,84.282A215.463,215.463,0,0,0,1239.569,751.755Zm-13.557,162.817a202.648,202.648,0,0,1-73.159,88.812,202.2,202.2,0,0,1-191.384,18.594,202.362,202.362,0,0,1-88.812-73.126,202.2,202.2,0,0,1-18.594-191.384,202.867,202.867,0,0,1,73.126-88.846,202.2,202.2,0,0,1,191.384-18.594,201.468,201.468,0,0,1,64.167,43.274,204.853,204.853,0,0,1,24.679,29.886,202.2,202.2,0,0,1,18.594,191.384ZM1040.037,661.59a174.447,174.447,0,1,0,174.447,174.447A174.437,174.437,0,0,0,1040.037,661.59Zm0,335.032a160.042,160.042,0,1,1,62.51-12.61A160.082,160.082,0,0,1,1040.037,996.623Zm0-335.032a174.447,174.447,0,1,0,174.447,174.447A174.437,174.437,0,0,0,1040.037,661.59Zm0,335.032a160.042,160.042,0,1,1,62.51-12.61A160.082,160.082,0,0,1,1040.037,996.623Zm0-335.032a174.447,174.447,0,1,0,174.447,174.447A174.437,174.437,0,0,0,1040.037,661.59Zm0,335.032a160.042,160.042,0,1,1,62.51-12.61A160.082,160.082,0,0,1,1040.037,996.623Z" transform="translate(-808.794 -604.794)"/>
      <path id="Path_154" data-name="Path 154" d="M1011.243,576C883.519,576,780,679.518,780,807.243s103.519,231.243,231.243,231.243,231.243-103.519,231.243-231.243S1138.968,576,1011.243,576Zm167.381,344.059a203.255,203.255,0,0,1-54.565,54.531,202.2,202.2,0,0,1-191.384,18.594,202.361,202.361,0,0,1-88.812-73.126,202.2,202.2,0,0,1-18.594-191.384,202.866,202.866,0,0,1,73.126-88.846,202.2,202.2,0,0,1,191.384-18.594,201.47,201.47,0,0,1,64.167,43.274,204.838,204.838,0,0,1,24.679,29.886,201.649,201.649,0,0,1,0,225.665Z" transform="translate(-780 -576)"/>
    </g>
    <g id="Group_183" data-name="Group 183" transform="translate(320.495 251.528)">
      <path id="Path_155" data-name="Path 155" class="cls-2" d="M1365.373,1111a50.373,50.373,0,1,0,50.373,50.373A50.369,50.369,0,0,0,1365.373,1111Zm0,85.871a35.5,35.5,0,1,1,35.5-35.5A35.537,35.537,0,0,1,1365.373,1196.871Z" transform="translate(-1190.927 -986.927)"/>
      <path id="Path_156" data-name="Path 156" class="cls-2" d="M1241.593,924a113.593,113.593,0,1,0,113.593,113.593A113.579,113.579,0,0,0,1241.593,924Zm35.4,197.4A91.49,91.49,0,1,1,1305.9,1101.9,90.333,90.333,0,0,1,1276.99,1121.4Z" transform="translate(-1067.146 -863.147)"/>
      <path id="Path_157" data-name="Path 157" class="cls-2" d="M1290.381,866.8a168.272,168.272,0,1,0,13.151,65.215A167.235,167.235,0,0,0,1290.381,866.8Zm-6.39,127.725a161.239,161.239,0,1,1,12.61-62.51A159.85,159.85,0,0,1,1283.991,994.526Z" transform="translate(-961.57 -757.57)"/>
      <path id="Path_158" data-name="Path 158" d="M1122.447,744a174.447,174.447,0,1,0,174.447,174.447A174.437,174.437,0,0,0,1122.447,744Zm0,335.032a160.043,160.043,0,1,1,62.51-12.61A160.082,160.082,0,0,1,1122.447,1079.032Z" transform="translate(-948 -744)"/>
    </g>
    <g id="Group_184" data-name="Group 184" transform="translate(381.348 312.381)">
      <path id="Path_159" data-name="Path 159" class="cls-2" d="M1365.373,1111a50.373,50.373,0,1,0,50.373,50.373A50.369,50.369,0,0,0,1365.373,1111Zm0,85.871a35.5,35.5,0,1,1,35.5-35.5A35.537,35.537,0,0,1,1365.373,1196.871Z" transform="translate(-1251.78 -1047.78)"/>
      <path id="Path_160" data-name="Path 160" class="cls-2" d="M1336.082,987.453a102.268,102.268,0,1,0,29.953,72.314A101.627,101.627,0,0,0,1336.082,987.453Zm-8.012,136.616a90.485,90.485,0,1,1,19.507-28.906A91.1,91.1,0,0,1,1328.069,1124.07Z" transform="translate(-1150.174 -946.174)"/>
      <path id="Path_161" data-name="Path 161" d="M1241.593,924a113.593,113.593,0,1,0,113.593,113.593A113.579,113.579,0,0,0,1241.593,924Zm35.4,197.4A91.49,91.49,0,1,1,1305.9,1101.9,90.333,90.333,0,0,1,1276.99,1121.4Z" transform="translate(-1128 -924)"/>
    </g>
    <g id="Group_185" data-name="Group 185" transform="translate(444.568 375.601)">
      <path id="Path_162" data-name="Path 162" class="cls-2" d="M1379.936,1133a42.935,42.935,0,1,0,42.936,42.935A43,43,0,0,0,1379.936,1133Zm0,78.433a35.5,35.5,0,1,1,35.5-35.5A35.537,35.537,0,0,1,1379.936,1211.433Z" transform="translate(-1329.562 -1125.562)"/>
      <path id="Path_163" data-name="Path 163" d="M1365.373,1111a50.373,50.373,0,1,0,50.373,50.373A50.369,50.369,0,0,0,1365.373,1111Zm0,85.871a35.5,35.5,0,1,1,35.5-35.5A35.537,35.537,0,0,1,1365.373,1196.871Z" transform="translate(-1315 -1111)"/>
    </g>
    <g id="Group_186" data-name="Group 186" transform="translate(84.857 76.439)">
      <path id="Path_164" data-name="Path 164" d="M353.876,287.123h-88.1c-8.148,0-14.774-8.553-14.774-19.067V245.167c0-10.514,6.626-19.067,14.774-19.067h88.1c8.148,0,14.774,8.553,14.774,19.067v22.888C368.65,278.569,362.024,287.123,353.876,287.123Zm-88.1-45.3c-1.42,0-2.569,1.488-2.569,3.313v22.888c0,1.826,1.149,3.313,2.569,3.313h88.1c1.42,0,2.569-1.488,2.569-3.313V245.134c0-1.826-1.149-3.313-2.569-3.313h-88.1Z" transform="translate(-251 -226.1)"/>
    </g>
  </g>
</svg>
