<svg xmlns="http://www.w3.org/2000/svg" viewBox="10589.658 667 752.563 752.877">
  <defs>
    <style>
      .cls-1 {
        opacity: 0.1;
      }
    </style>
  </defs>
  <g id="football" class="cls-1" transform="translate(10589.658 667)">
    <g id="Group_190" data-name="Group 190" transform="translate(0.031 0.179)">
      <path id="Path_176" data-name="Path 176" d="M939.7,1126.1c1.383.314,2.735.629,4.118.943C942.435,1126.727,941.052,1126.413,939.7,1126.1Zm25.083,4.966c1.32.22,2.609.409,3.929.6C967.424,1131.474,966.1,1131.285,964.783,1131.065Zm34.042,3.772c.66.032,1.352.094,2.012.126h0C1000.145,1134.931,999.485,1134.9,998.825,1134.837ZM1313.561,599.6c1.1,1.729,2.2,3.458,3.3,5.218C1315.761,603.058,1314.661,601.329,1313.561,599.6Zm20.463,36.462c.6,1.257,1.226,2.515,1.792,3.772Q1334.967,637.948,1334.024,636.062Z" transform="translate(-644.358 -411.308)"/>
      <path id="Path_177" data-name="Path 177" d="M745.748,305.162a378.311,378.311,0,0,0-20.337-69.026,369.76,369.76,0,0,0-15.591-33.79c-1.069-2.043-2.169-4.086-3.269-6.129-.377-.66-.754-1.352-1.132-2.043-.754-1.352-1.509-2.7-2.263-4.023-.911-1.6-1.823-3.175-2.766-4.746-.5-.849-.974-1.666-1.477-2.483-.691-1.163-1.414-2.326-2.106-3.489-1.069-1.729-2.138-3.426-3.238-5.124-.849-1.289-1.666-2.609-2.515-3.9s-1.7-2.577-2.578-3.866-1.729-2.546-2.609-3.835l-27.284-34.7-3.112-3.489-1.572-1.729c-1.069-1.163-2.106-2.295-3.206-3.426-2.138-2.295-4.306-4.526-6.538-6.758A374.13,374.13,0,0,0,453.14,8.437,378.605,378.605,0,0,0,382.2.61c-4.778-.063-9.587-.063-14.4.063a377.325,377.325,0,0,0-129.126,25.9,373.859,373.859,0,0,0-126.58,82.417l-.126.126A375.06,375.06,0,0,0,.351,363.124C.194,367.713.1,372.271.1,376.86v.629a376.395,376.395,0,0,0,27.189,139.97,374.05,374.05,0,0,0,81.065,123.436l.157.157a374.23,374.23,0,0,0,191.3,104.168,379.239,379.239,0,0,0,71.007,7.8c1.823.031,3.646.031,5.469.031,2.955,0,5.941-.031,8.9-.094a380.663,380.663,0,0,0,58.276-5.909,375.894,375.894,0,0,0,302.163-298.2,380.807,380.807,0,0,0,6.664-58.213c.157-4.621.251-9.241.251-13.862v-.534A374.455,374.455,0,0,0,745.748,305.162ZM630.7,139.354c.786.849,1.572,1.7,2.326,2.515.44.471.849.912,1.257,1.383l1.792,1.98c.314.346.6.692.912,1.037.566.629,1.1,1.226,1.635,1.855.251.251.471.534.691.786.283.314.566.629.817.943.314.346.6.692.912,1.037.377.44.754.88,1.1,1.32.314.377.629.754.943,1.1,1.32,1.572,2.609,3.112,3.866,4.715.409.534.849,1.037,1.257,1.572l1.132,1.414c.031.063.094.126.126.189.44.566.88,1.1,1.32,1.666s.88,1.132,1.289,1.666c.566.723,1.132,1.446,1.666,2.2.283.409.6.786.88,1.194.44.566.849,1.132,1.257,1.7s.849,1.132,1.257,1.7c.5.692,1.037,1.383,1.54,2.106.251.346.5.692.723,1.037.566.754,1.1,1.54,1.634,2.295l1.132,1.6c.377.534.723,1.037,1.1,1.572.409.566.786,1.163,1.194,1.729s.786,1.163,1.194,1.76c.283.409.534.786.786,1.194.189.314.409.6.6.912.251.377.472.723.723,1.1a1.907,1.907,0,0,0,.22.314c.377.6.754,1.163,1.163,1.76.031.031.063.094.094.126,1.1,1.729,2.2,3.458,3.3,5.218.377.6.754,1.194,1.1,1.792.377.6.723,1.194,1.1,1.792s.723,1.194,1.069,1.792c.377.6.723,1.194,1.069,1.823.346.6.723,1.194,1.069,1.823.346.6.691,1.226,1.037,1.823s.692,1.226,1.037,1.823.692,1.226,1.037,1.823l.943,1.7c.346.6.66,1.226.974,1.823.063.094.094.189.157.283.314.566.629,1.163.911,1.729.251.471.5.974.754,1.446.22.409.409.817.629,1.194.251.44.472.912.692,1.352.5.974,1.006,1.949,1.509,2.955.22.471.471.912.692,1.383l.66,1.32c.251.5.5,1.037.754,1.54.6,1.257,1.226,2.515,1.792,3.772.283.629.6,1.257.88,1.886.346.754.723,1.54,1.069,2.295l.566,1.226c.912,2.075,1.823,4.149,2.7,6.224.251.6.5,1.163.754,1.76.283.66.534,1.289.817,1.949.283.629.534,1.289.786,1.949s.534,1.289.786,1.949.5,1.289.754,1.949c.22.534.409,1.069.629,1.6.094.22.157.409.251.629.346.912.692,1.792,1.037,2.7.314.88.66,1.76.974,2.609s.629,1.729.943,2.578c.189.534.377,1.069.566,1.634.22.66.471,1.32.691,1.98.786,2.326,1.572,4.652,2.295,6.978.094.346.22.66.314,1.006.189.566.377,1.163.534,1.729.252.754.471,1.509.692,2.263.157.5.314,1.037.471,1.572l.189.66c.189.6.346,1.194.534,1.823.189.66.377,1.352.566,2.012s.377,1.352.566,2.012.346,1.289.534,1.949c.157.629.346,1.257.5,1.886.534,2.075,1.069,4.149,1.572,6.255.157.629.314,1.257.44,1.886l.754,3.206c.126.5.22.974.346,1.477.126.6.251,1.163.377,1.76.031.094.031.189.063.283.094.377.157.754.252,1.132.251,1.226.5,2.42.754,3.646.094.5.189,1.006.314,1.509,0,.063.032.126.032.22.094.471.189.912.251,1.383.094.44.157.849.251,1.289.126.6.22,1.194.346,1.792.094.534.189,1.037.283,1.572.063.283.094.6.157.912.157.943.346,1.917.5,2.86.094.5.157.974.251,1.477.251,1.477.471,2.923.692,4.4.094.566.157,1.132.251,1.666s.157,1.069.22,1.6c.063.44.126.88.189,1.289.063.5.126,1.037.22,1.54.189,1.383.346,2.766.5,4.118.031.377.094.754.126,1.132.063.534.126,1.069.189,1.572.126,1.257.283,2.546.409,3.8l.189,1.792c.126,1.194.22,2.389.314,3.552.031.314.063.66.094.974.063.6.094,1.226.157,1.823.031.566.094,1.1.126,1.666.063.66.094,1.352.126,2.012.031.566.063,1.132.126,1.7.031.786.094,1.54.126,2.326.031.346.031.66.063,1.006v.22c.031.471.031.943.063,1.414v.094c.031.44.031.849.063,1.289a345.776,345.776,0,0,1-227.6-103.005,359.556,359.556,0,0,1-26.529-30.144A1046.394,1046.394,0,0,1,630.7,139.354ZM404.514,29.968c.66.063,1.352.094,2.012.157,1.194.094,2.389.22,3.615.314a6.1,6.1,0,0,0,.754.063l1.1.094c.409.031.817.094,1.226.126,1.666.189,3.363.377,5.029.566.377.031.754.094,1.132.157.094,0,.189.031.314.031.723.094,1.414.189,2.137.283a1.577,1.577,0,0,1,.377.063c.377.063.723.094,1.1.157,1.289.157,2.546.346,3.835.534.66.094,1.32.189,2.012.283h.094c.943.157,1.917.283,2.86.44.283.063.6.094.88.157.5.094.974.157,1.446.251.534.094,1.069.189,1.572.251,1.446.251,2.892.5,4.338.786.566.094,1.163.22,1.729.314,1.949.377,3.9.754,5.815,1.163.912.189,1.855.377,2.766.6.566.126,1.1.251,1.666.377l1.7.377c.66.157,1.289.283,1.949.44.723.157,1.446.346,2.137.5.723.157,1.414.346,2.137.534,2.86.692,5.689,1.446,8.518,2.2.5.126,1.006.283,1.509.409,1.6.44,3.206.912,4.809,1.383.22.063.44.126.691.189,1.1.314,2.2.66,3.3,1.006.409.126.849.251,1.289.409,2.137.66,4.243,1.352,6.381,2.043l1.7.566,3.3,1.132c.66.22,1.32.471,1.98.692l1.792.66c.754.283,1.509.566,2.263.817,1.132.409,2.295.849,3.426,1.289a1.921,1.921,0,0,1,.377.157c.472.189.974.377,1.446.566.817.314,1.6.629,2.389.943.66.251,1.289.5,1.949.786.6.251,1.194.471,1.76.723.5.22,1.006.409,1.509.629.6.251,1.226.5,1.823.754s1.226.5,1.823.786l.849.377c.44.189.912.409,1.352.6,2.892,1.257,5.784,2.577,8.613,3.929l1.792.849c.5.251.974.471,1.477.723l.943.471q6.365,3.112,12.636,6.507c.44.251.88.471,1.32.723,1.949,1.069,3.866,2.137,5.815,3.238l1.32.754c.471.251.912.534,1.383.817.377.22.723.44,1.1.629.44.251.88.534,1.32.786.471.283.912.566,1.383.817.754.44,1.477.88,2.2,1.352.471.283.912.566,1.383.849.031.031.063.031.126.063.629.409,1.257.786,1.917,1.194.723.44,1.414.88,2.138,1.352.5.314,1.006.66,1.509.974.189.126.346.22.534.346.44.283.849.566,1.289.849.094.063.22.157.314.22l1.886,1.226c.44.283.88.6,1.352.88,2.326,1.572,4.652,3.175,6.947,4.778.566.409,1.163.817,1.729,1.226l1.7,1.226c.566.409,1.132.817,1.7,1.257.566.409,1.132.849,1.7,1.257s1.132.849,1.7,1.257c.409.314.849.629,1.257.943l3.772,2.923c.566.44,1.1.88,1.666,1.32a1.332,1.332,0,0,0,.22.157c.629.5,1.226,1.006,1.855,1.509l1.98,1.6c.063.063.126.094.189.157.629.5,1.226,1.006,1.855,1.509.126.094.251.22.377.314.6.5,1.194,1.006,1.792,1.477.534.471,1.069.912,1.6,1.383.723.629,1.446,1.226,2.137,1.855.346.314.723.629,1.069.943a.031.031,0,0,1,.031.031l1.509,1.32a1.577,1.577,0,0,1,.252.22c.629.566,1.257,1.1,1.886,1.666l.063.063a1086.43,1086.43,0,0,0-148.74,82.417c-2.389,1.572-4.746,3.175-7.1,4.778A344.949,344.949,0,0,1,396.593,29.371C399.139,29.591,401.81,29.78,404.514,29.968Zm-36.4-1.006a376.641,376.641,0,0,0,17.351,99.327,372.779,372.779,0,0,0,44.54,93.2A970.445,970.445,0,0,0,316.848,316.7c-.534.534-1.1,1.069-1.634,1.6q-90.526-95.948-174.074-197.932A344.894,344.894,0,0,1,368.115,28.962ZM120.99,140.423c55.7,67.895,114.1,134.281,174.326,198.121A965.679,965.679,0,0,0,220,427.97,372.213,372.213,0,0,0,127.5,382.361a375.838,375.838,0,0,0-98.919-18.577A345.181,345.181,0,0,1,120.99,140.423ZM109.769,600.5c-.314-.377-.6-.723-.912-1.1-.377-.44-.723-.88-1.1-1.32-.314-.377-.6-.754-.912-1.1-.44-.5-.849-1.037-1.257-1.572-1.069-1.32-2.137-2.672-3.206-3.992-.346-.44-.692-.849-1.006-1.289-.346-.44-.692-.88-1.037-1.352-.409-.5-.786-1.037-1.194-1.54-.974-1.289-1.949-2.578-2.892-3.866-.314-.409-.6-.817-.912-1.226L94.3,580.733c-1.037-1.414-2.043-2.86-3.049-4.275-.534-.754-1.037-1.477-1.572-2.232-.849-1.257-1.729-2.483-2.546-3.74-.283-.44-.566-.849-.849-1.289-.6-.88-1.163-1.76-1.729-2.609-.251-.409-.534-.786-.786-1.194-.283-.44-.6-.88-.88-1.352-.283-.44-.566-.912-.849-1.352-1.7-2.7-3.395-5.406-5-8.141-.346-.566-.692-1.132-1.006-1.7-.314-.5-.6-1.037-.912-1.54-.157-.251-.283-.5-.44-.754-.314-.534-.629-1.1-.943-1.635-.126-.189-.22-.409-.346-.6-.314-.534-.629-1.069-.912-1.635-.314-.534-.6-1.069-.912-1.6-.346-.629-.692-1.289-1.037-1.917-.314-.566-.629-1.132-.912-1.7-.346-.66-.692-1.289-1.037-1.949-.189-.314-.346-.66-.5-.974-.189-.314-.346-.66-.5-.974a2.875,2.875,0,0,1-.22-.44c-1.823-3.489-3.552-6.978-5.249-10.53-.22-.44-.409-.88-.629-1.289a1.533,1.533,0,0,1-.094-.22c-.189-.377-.346-.723-.5-1.1-.377-.786-.723-1.54-1.069-2.326-.157-.314-.283-.629-.44-.943-.346-.786-.723-1.572-1.069-2.357-.189-.409-.346-.786-.534-1.195-.534-1.194-1.037-2.389-1.572-3.615-.283-.691-.566-1.352-.849-2.043s-.566-1.352-.849-2.043c-.189-.471-.409-.974-.6-1.446l-.66-1.6c-.157-.409-.314-.786-.471-1.194-.22-.5-.409-1.037-.6-1.54-.157-.409-.314-.849-.5-1.257-.251-.66-.5-1.32-.754-2.012-.063-.189-.126-.346-.189-.534-.251-.692-.5-1.352-.754-2.043-.189-.5-.346-.974-.534-1.477-.189-.471-.346-.974-.534-1.477s-.346-.974-.534-1.477c-.534-1.477-1.037-2.986-1.54-4.463-.189-.5-.346-1.037-.534-1.54s-.346-1.037-.5-1.54l-.377-1.132c-.409-1.257-.817-2.546-1.194-3.8-.157-.5-.314-1.037-.471-1.54-.251-.754-.471-1.54-.692-2.295-.094-.346-.22-.691-.314-1.037-.126-.44-.251-.88-.377-1.289-.189-.629-.346-1.226-.534-1.855-.189-.723-.409-1.446-.6-2.137-.157-.566-.314-1.1-.471-1.666-.189-.629-.346-1.289-.534-1.917-.157-.629-.346-1.289-.5-1.917s-.346-1.289-.5-1.917c-.126-.471-.251-.974-.377-1.446s-.251-.974-.346-1.446c-.126-.44-.22-.912-.346-1.352-.314-1.257-.6-2.515-.88-3.772-.283-1.194-.534-2.389-.817-3.583-.157-.66-.283-1.289-.409-1.949-.566-2.609-1.069-5.218-1.572-7.827-.126-.629-.251-1.257-.346-1.886-.346-1.886-.66-3.772-.974-5.658-.063-.377-.126-.723-.189-1.069-.409-2.483-.786-5-1.132-7.481-.094-.566-.157-1.1-.22-1.666-.283-1.98-.534-3.961-.754-5.972-.094-.66-.157-1.32-.22-1.949-.031-.409-.094-.817-.126-1.194-.063-.471-.094-.912-.157-1.383-.094-.974-.189-1.917-.283-2.892-.031-.346-.063-.723-.094-1.1-.031-.5-.094-.974-.126-1.477-.063-.66-.126-1.352-.189-2.012-.031-.534-.094-1.069-.126-1.6-.031-.346-.063-.66-.094-1.006l-.094-1.32a4.213,4.213,0,0,1-.031-.629c-.031-.6-.094-1.194-.126-1.76s-.063-1.163-.094-1.729c-.126-2.012-.22-4.023-.314-6.067a344.918,344.918,0,0,1,174.766,58.811l-5.092,7.355a1045.982,1045.982,0,0,0-84.02,147.545C112.818,604.087,111.278,602.3,109.769,600.5Zm246.81,123.719c-.66-.031-1.352-.094-2.012-.126L353.341,724l-1.352-.094H351.9l-1.352-.094-1.132-.094c-.566-.031-1.1-.094-1.666-.126-.629-.063-1.289-.094-1.917-.157-.157,0-.283-.031-.44-.031-.5-.031-1.037-.094-1.54-.126L340.8,723c-.534-.063-1.037-.094-1.572-.157-.691-.063-1.383-.157-2.075-.22l-4.055-.471c-.754-.094-1.54-.189-2.295-.283-.691-.094-1.414-.189-2.106-.283l-1.414-.189c-.943-.126-1.855-.251-2.766-.409-1.32-.189-2.64-.409-3.929-.6-1.006-.157-2.012-.314-3.018-.5-.471-.094-.943-.157-1.414-.251-.629-.094-1.226-.22-1.855-.314-1.635-.283-3.269-.6-4.9-.912-.5-.094-1.037-.189-1.54-.314-.692-.126-1.383-.283-2.075-.409s-1.383-.283-2.075-.44-1.383-.283-2.075-.44-1.383-.314-2.075-.44c-1.383-.314-2.735-.629-4.118-.943-.692-.157-1.352-.314-2.043-.5-.691-.157-1.352-.346-2.043-.5-.534-.126-1.069-.283-1.6-.409-.5-.126-1.037-.252-1.54-.409-.5-.126-.974-.251-1.477-.377s-.974-.251-1.477-.409c-.692-.189-1.352-.377-2.012-.566-.692-.189-1.352-.377-2.012-.566-.409-.126-.849-.252-1.257-.346-.409-.126-.849-.251-1.257-.377-.5-.157-1.006-.283-1.509-.44l-2.452-.754c-.5-.157-1.037-.314-1.54-.471-.66-.189-1.352-.409-2.012-.629s-1.32-.409-2.012-.629c-.6-.189-1.194-.377-1.792-.6-.189-.063-.346-.126-.534-.189-.534-.189-1.037-.346-1.572-.534-.6-.189-1.226-.409-1.823-.629-1.289-.44-2.609-.88-3.9-1.352-.754-.283-1.54-.566-2.326-.817-1.006-.377-2.043-.754-3.049-1.132-.534-.189-1.1-.409-1.635-.629-.534-.189-1.1-.409-1.635-.629-.6-.251-1.226-.472-1.823-.723-.534-.22-1.1-.44-1.634-.66l-2.829-1.132c-.346-.157-.723-.283-1.069-.44-.723-.283-1.414-.6-2.137-.88-.566-.252-1.163-.5-1.729-.723-.6-.251-1.194-.5-1.792-.786-.094-.031-.189-.094-.283-.126l-1.509-.66-.189-.094c-.6-.251-1.194-.534-1.76-.786-.723-.314-1.414-.629-2.137-.974-.6-.283-1.194-.534-1.792-.817-1.949-.911-3.866-1.823-5.784-2.735-.629-.314-1.257-.6-1.886-.911s-1.226-.6-1.855-.912c-1.257-.629-2.515-1.257-3.74-1.917-.629-.314-1.257-.629-1.855-.974-.912-.471-1.792-.943-2.7-1.414-.346-.189-.66-.346-1.006-.534-.66-.346-1.32-.723-1.949-1.069-.314-.189-.66-.346-.974-.534s-.66-.346-.974-.534c-.472-.251-.943-.534-1.414-.786-.849-.471-1.7-.943-2.515-1.446l-1.32-.754c-.471-.283-.943-.534-1.383-.817a.238.238,0,0,0-.126-.063l-2.546-1.509-2.64-1.6c-.534-.314-1.069-.66-1.6-.974-.692-.44-1.383-.849-2.043-1.289-.471-.314-.974-.6-1.446-.912-.44-.283-.88-.566-1.32-.817-.786-.5-1.6-1.037-2.389-1.54-.754-.5-1.509-.974-2.232-1.477-.031-.031-.094-.063-.126-.094-.6-.377-1.163-.786-1.76-1.163l-2.357-1.6c-.377-.251-.786-.534-1.163-.786-.786-.534-1.54-1.069-2.326-1.6-.44-.314-.912-.629-1.352-.974-.723-.5-1.414-1.006-2.137-1.509-.88-.629-1.76-1.289-2.64-1.917-.471-.346-.912-.692-1.383-1.037-.157-.126-.346-.251-.5-.377-.6-.44-1.226-.912-1.823-1.352l-.754-.566-.754-.566c-.566-.44-1.132-.849-1.666-1.289-.566-.44-1.1-.88-1.666-1.289-.409-.314-.849-.66-1.257-.974-.723-.566-1.477-1.163-2.2-1.76l-3.112-2.546c-.283-.251-.6-.471-.88-.723-.283-.22-.534-.44-.817-.692-1.194-1.006-2.357-1.98-3.552-2.986L149,640.266l-1.6-1.414-1.6-1.414c-.629-.566-1.257-1.1-1.886-1.666-.44-.409-.88-.786-1.32-1.194-.6-.534-1.163-1.069-1.76-1.6l-1.383-1.289c-.409-.377-.817-.786-1.257-1.163-.943-.88-1.886-1.792-2.829-2.672a1007.445,1007.445,0,0,1,91.061-159.961c3.363,2.7,6.7,5.469,9.964,8.33,6.978,6.035,13.736,12.384,20.243,18.954a345.632,345.632,0,0,1,99.956,229.051Zm28.321.44A378.661,378.661,0,0,0,378.33,667.8a374.894,374.894,0,0,0-20.368-68.995,371.579,371.579,0,0,0-34.356-65.663,380.045,380.045,0,0,0-46.866-57.836,376.466,376.466,0,0,0-33.759-30.364,936.052,936.052,0,0,1,72.075-85.56q19.143,19.991,38.537,39.637c81.034,82.134,166.971,161.564,255.674,236.311A344.712,344.712,0,0,1,384.9,724.663ZM629.635,615.434A3763.21,3763.21,0,0,1,334.984,339.109a940.547,940.547,0,0,1,111.681-94.424,377.06,377.06,0,0,0,29.61,33.79A373.784,373.784,0,0,0,598.642,361.3a376.9,376.9,0,0,0,68.681,21.28,382.7,382.7,0,0,0,56.768,7.355A345.329,345.329,0,0,1,629.635,615.434Z" transform="translate(-0.1 -0.569)"/>
    </g>
    <g id="Group_191" data-name="Group 191" transform="translate(0 362.734)">
      <path id="Path_178" data-name="Path 178" d="M0,1154l.031,13.736c0-4.589.094-9.147.251-13.736Zm376.25,389.955c-1.823,0-3.646,0-5.469-.031l14.365.22v-.283C382.191,1543.923,379.2,1543.955,376.25,1543.955Z" transform="translate(0 -1154)"/>
    </g>
    <g id="Group_192" data-name="Group 192" transform="translate(367.732)">
      <path id="Path_179" data-name="Path 179" d="M1169.9,0V.283c4.809-.094,9.587-.126,14.4-.063Zm384.8,376.407c0,4.621-.094,9.241-.251,13.862h.283Z" transform="translate(-1169.9)"/>
    </g>
  </g>
</svg>
