<svg xmlns="http://www.w3.org/2000/svg" viewBox="2455 1614.193 437.636 792.614">
  <defs>
    <style>
      .cls-1 {
        fill: #484848;
        opacity: 0.1;
      }
    </style>
  </defs>
  <path id="Path_139" data-name="Path 139" class="cls-1" d="M233.13,738.979H218.952a2.272,2.272,0,0,0-2.274,2.274v14.178a2.272,2.272,0,0,0,2.274,2.274H233.13a2.272,2.272,0,0,0,2.274-2.274V741.253A2.272,2.272,0,0,0,233.13,738.979Zm0,0H218.952a2.272,2.272,0,0,0-2.274,2.274v14.178a2.272,2.272,0,0,0,2.274,2.274H233.13a2.272,2.272,0,0,0,2.274-2.274V741.253A2.272,2.272,0,0,0,233.13,738.979Zm0,0H218.952a2.272,2.272,0,0,0-2.274,2.274v14.178a2.272,2.272,0,0,0,2.274,2.274H233.13a2.272,2.272,0,0,0,2.274-2.274V741.253A2.272,2.272,0,0,0,233.13,738.979Zm0,0H218.952a2.272,2.272,0,0,0-2.274,2.274v14.178a2.272,2.272,0,0,0,2.274,2.274H233.13a2.272,2.272,0,0,0,2.274-2.274V741.253A2.272,2.272,0,0,0,233.13,738.979Zm0,0H218.952a2.272,2.272,0,0,0-2.274,2.274v14.178a2.272,2.272,0,0,0,2.274,2.274H233.13a2.272,2.272,0,0,0,2.274-2.274V741.253A2.272,2.272,0,0,0,233.13,738.979Zm0,0H218.952a2.272,2.272,0,0,0-2.274,2.274v14.178a2.272,2.272,0,0,0,2.274,2.274H233.13a2.272,2.272,0,0,0,2.274-2.274V741.253A2.272,2.272,0,0,0,233.13,738.979ZM398.955,0H38.681A38.7,38.7,0,0,0,0,38.681V753.933a38.685,38.685,0,0,0,38.681,38.681H398.955a38.685,38.685,0,0,0,38.681-38.681V38.681A38.685,38.685,0,0,0,398.955,0ZM157.372,41.41a4.8,4.8,0,0,1,3.4-1.418h151.14a4.829,4.829,0,0,1,4.815,4.815,4.7,4.7,0,0,1-1.418,3.4,4.8,4.8,0,0,1-3.4,1.418H160.77a4.829,4.829,0,0,1-4.815-4.815A4.7,4.7,0,0,1,157.372,41.41Zm-32.448-1.418a4.815,4.815,0,1,1-4.815,4.815A4.829,4.829,0,0,1,124.924,39.992ZM94.563,757.7H69.685a.936.936,0,1,1,0-1.872H94.563a.936.936,0,1,1,0,1.872Zm0-8.293H69.685a.936.936,0,0,1,0-1.873H94.563a.936.936,0,0,1,0,1.873Zm0-8.293H69.685a.936.936,0,0,1,0-1.873H94.563a.936.936,0,0,1,0,1.873Zm142.713,14.311a4.133,4.133,0,0,1-4.146,4.146H218.952a4.133,4.133,0,0,1-4.146-4.146V741.253a4.133,4.133,0,0,1,4.146-4.146H233.13a4.133,4.133,0,0,1,4.146,4.146Zm131.291-16.5-12.492,9.657,11.69,9.042a.947.947,0,0,1-.589,1.685.84.84,0,0,1-.562-.187l-12.626-9.791a.936.936,0,0,1,0-1.5l13.455-10.406a.936.936,0,0,1,1.311.161A1,1,0,0,1,368.567,738.926Zm58.69-28.2H10.727V84.959H427.284V710.731ZM233.13,738.979H218.952a2.272,2.272,0,0,0-2.274,2.274v14.178a2.272,2.272,0,0,0,2.274,2.274H233.13a2.272,2.272,0,0,0,2.274-2.274V741.253A2.272,2.272,0,0,0,233.13,738.979Zm0,0H218.952a2.272,2.272,0,0,0-2.274,2.274v14.178a2.272,2.272,0,0,0,2.274,2.274H233.13a2.272,2.272,0,0,0,2.274-2.274V741.253A2.272,2.272,0,0,0,233.13,738.979Zm0,0H218.952a2.272,2.272,0,0,0-2.274,2.274v14.178a2.272,2.272,0,0,0,2.274,2.274H233.13a2.272,2.272,0,0,0,2.274-2.274V741.253A2.272,2.272,0,0,0,233.13,738.979Zm0,0H218.952a2.272,2.272,0,0,0-2.274,2.274v14.178a2.272,2.272,0,0,0,2.274,2.274H233.13a2.272,2.272,0,0,0,2.274-2.274V741.253A2.272,2.272,0,0,0,233.13,738.979Zm0,0H218.952a2.272,2.272,0,0,0-2.274,2.274v14.178a2.272,2.272,0,0,0,2.274,2.274H233.13a2.272,2.272,0,0,0,2.274-2.274V741.253A2.272,2.272,0,0,0,233.13,738.979Z" transform="translate(2455 1614.193)"/>
</svg>
