<svg xmlns="http://www.w3.org/2000/svg" viewBox="5851.515 614.199 1081.586 829.602">
  <defs>
    <style>
      .cls-1 {
        opacity: 0.97;
      }

      .cls-2, .cls-3 {
        fill: #2b2b2b;
      }

      .cls-2 {
        opacity: 0.09;
      }

      .cls-3 {
        opacity: 0.09;
      }
    </style>
  </defs>
  <g id="nuts" class="cls-1" transform="translate(4834 42)">
    <path id="Path_143" data-name="Path 143" class="cls-2" d="M829.6,480.945V348.657a21.291,21.291,0,0,0-21.3-21.3H737.869a21.28,21.28,0,0,1-20.179-14.518,318.163,318.163,0,0,0-16.62-40.079,21.308,21.308,0,0,1,3.98-24.58l49.8-49.8a21.263,21.263,0,0,0,0-30.1L661.3,74.72a21.263,21.263,0,0,0-30.1,0l-49.8,49.8a21.308,21.308,0,0,1-24.58,3.98,316.445,316.445,0,0,0-40.079-16.62A21.317,21.317,0,0,1,502.217,91.7V21.3A21.291,21.291,0,0,0,480.917,0H348.657a21.291,21.291,0,0,0-21.3,21.3V91.733a21.28,21.28,0,0,1-14.518,20.18,318.157,318.157,0,0,0-40.079,16.62,21.308,21.308,0,0,1-24.58-3.98l-49.8-49.832a21.263,21.263,0,0,0-30.1,0L74.72,168.275a21.263,21.263,0,0,0,0,30.1l49.8,49.8a21.308,21.308,0,0,1,3.98,24.58,316.44,316.44,0,0,0-16.62,40.079A21.317,21.317,0,0,1,91.7,327.356H21.3A21.291,21.291,0,0,0,0,348.657V480.945a21.291,21.291,0,0,0,21.3,21.3H91.733a21.28,21.28,0,0,1,20.179,14.518,318.17,318.17,0,0,0,16.62,40.079,21.308,21.308,0,0,1-3.98,24.58l-49.8,49.8a21.263,21.263,0,0,0,0,30.1L168.3,754.881a21.263,21.263,0,0,0,30.1,0l49.8-49.8a21.308,21.308,0,0,1,24.58-3.98,316.457,316.457,0,0,0,40.079,16.62,21.317,21.317,0,0,1,14.518,20.18v70.4a21.291,21.291,0,0,0,21.3,21.3h132.26a21.291,21.291,0,0,0,21.3-21.3V737.869a21.28,21.28,0,0,1,14.518-20.179,318.183,318.183,0,0,0,40.079-16.62,21.308,21.308,0,0,1,24.58,3.98l49.8,49.8a21.263,21.263,0,0,0,30.1,0L754.881,661.3a21.263,21.263,0,0,0,0-30.1l-49.8-49.8a21.308,21.308,0,0,1-3.98-24.58,316.465,316.465,0,0,0,16.62-40.079,21.317,21.317,0,0,1,20.18-14.518h70.4A21.249,21.249,0,0,0,829.6,480.945ZM415.726,590.587c-89.911-4.624-162-76.71-166.593-166.593-5.353-104.037,80.914-190.276,184.951-184.951,89.911,4.624,162,76.71,166.593,166.593C606,509.672,519.762,595.912,415.726,590.587Z" transform="translate(1269.5 572.199)"/>
    <path id="Path_144" data-name="Path 144" class="cls-3" d="M251.985,146.083V105.9a6.467,6.467,0,0,0-6.47-6.47H224.122a6.464,6.464,0,0,1-6.129-4.41,96.641,96.641,0,0,0-5.048-12.174,6.472,6.472,0,0,1,1.209-7.466l15.128-15.128a6.459,6.459,0,0,0,0-9.143L200.864,22.7a6.459,6.459,0,0,0-9.143,0L176.594,37.823a6.472,6.472,0,0,1-7.466,1.209,96.117,96.117,0,0,0-12.174-5.048,6.475,6.475,0,0,1-4.41-6.129V6.47A6.467,6.467,0,0,0,146.075,0H105.9a6.467,6.467,0,0,0-6.47,6.47V27.863a6.464,6.464,0,0,1-4.41,6.129,96.639,96.639,0,0,0-12.174,5.048,6.472,6.472,0,0,1-7.466-1.209L60.255,22.7a6.459,6.459,0,0,0-9.143,0L22.7,51.112a6.459,6.459,0,0,0,0,9.143L37.823,75.383a6.472,6.472,0,0,1,1.209,7.466,96.117,96.117,0,0,0-5.048,12.174,6.475,6.475,0,0,1-6.129,4.41H6.47A6.467,6.467,0,0,0,0,105.9v40.181a6.467,6.467,0,0,0,6.47,6.47H27.863a6.464,6.464,0,0,1,6.129,4.41,96.643,96.643,0,0,0,5.048,12.174,6.472,6.472,0,0,1-1.209,7.466L22.7,191.73a6.459,6.459,0,0,0,0,9.143l28.416,28.416a6.459,6.459,0,0,0,9.143,0l15.128-15.128a6.472,6.472,0,0,1,7.466-1.209A96.125,96.125,0,0,0,95.031,218a6.475,6.475,0,0,1,4.41,6.129v21.385a6.467,6.467,0,0,0,6.47,6.47h40.173a6.467,6.467,0,0,0,6.47-6.47V224.122a6.464,6.464,0,0,1,4.41-6.129,96.646,96.646,0,0,0,12.174-5.048,6.472,6.472,0,0,1,7.466,1.209l15.128,15.128a6.459,6.459,0,0,0,9.143,0l28.416-28.416a6.459,6.459,0,0,0,0-9.143l-15.128-15.128a6.472,6.472,0,0,1-1.209-7.466A96.124,96.124,0,0,0,218,156.954a6.475,6.475,0,0,1,6.129-4.41h21.385A6.454,6.454,0,0,0,251.985,146.083Zm-125.712,33.3a53.462,53.462,0,1,1,56.177-56.177A53.463,53.463,0,0,1,126.273,179.386Z" transform="translate(1017.515 1120.527)"/>
  </g>
</svg>
