<svg xmlns="http://www.w3.org/2000/svg" viewBox="12788.153 635 797.001 845.908">
  <defs>
    <style>
      .cls-1 {
        opacity: 0.12;
      }
    </style>
  </defs>
  <g id="Robot" class="cls-1" transform="translate(12788.124 635)">
    <g id="Group_215" data-name="Group 215" transform="translate(251.102 175.603)">
      <path id="Path_200" data-name="Path 200" d="M897.176,675.451H574.8V563.188A161.074,161.074,0,0,1,735.988,402h0A161.073,161.073,0,0,1,897.176,563.188ZM596.641,653.61H875.334V563.188c0-76.837-62.509-139.347-139.347-139.347S596.641,486.351,596.641,563.188V653.61Z" transform="translate(-574.8 -402)"/>
    </g>
    <g id="Group_216" data-name="Group 216" transform="translate(219.87 461.504)">
      <path id="Path_201" data-name="Path 201" d="M829.956,1311.6H568.037a64.82,64.82,0,0,1-64.737-64.737V1056.5H894.694v190.368A64.82,64.82,0,0,1,829.956,1311.6ZM525.141,1078.341v168.526a42.943,42.943,0,0,0,42.9,42.9H829.956a42.943,42.943,0,0,0,42.9-42.9V1078.341Z" transform="translate(-503.3 -1056.5)"/>
    </g>
    <g id="Group_217" data-name="Group 217" transform="translate(589.422 505.623)">
      <path id="Path_202" data-name="Path 202" d="M1349.3,1252.291V1157.5l11.357.481a46.956,46.956,0,0,1,0,93.829Zm21.841-69.236v43.682a25.162,25.162,0,0,0,0-43.682Z" transform="translate(-1349.3 -1157.5)"/>
    </g>
    <g id="Group_218" data-name="Group 218" transform="translate(185.361 505.623)">
      <path id="Path_203" data-name="Path 203" d="M480.65,1252.291l-11.357-.481a46.956,46.956,0,0,1,0-93.829l11.357-.481Zm-21.841-69.236a25.162,25.162,0,0,0,0,43.682Z" transform="translate(-424.3 -1157.5)"/>
    </g>
    <g id="Group_220" data-name="Group 220" transform="translate(0.029 451.891)">
      <g id="Group_219" data-name="Group 219">
        <path id="Path_204" data-name="Path 204" d="M57.5,1149.861a56.9,56.9,0,0,1-35.776-12.581A57.7,57.7,0,0,1,.89,1082.241a17.914,17.914,0,1,1,35.3,6.159,21.861,21.861,0,0,0,39.27,16.512,22.066,22.066,0,0,0-3.058-28.961,21.753,21.753,0,0,0-22.933-4.019,17.749,17.749,0,0,1-17.779-2.49l-.262-.218a17.776,17.776,0,0,1-6.552-16.468,17.428,17.428,0,0,1,10.7-13.847,57.657,57.657,0,1,1,29.748,110.385A53.614,53.614,0,0,1,57.5,1149.861Zm-38.921-68.494a3.856,3.856,0,0,0-1.442.262,3.948,3.948,0,0,0-2.49,3.014,43.791,43.791,0,0,0,15.769,41.717A43.674,43.674,0,1,0,40.9,1051.925a3.643,3.643,0,0,0-2.228,2.883,3.909,3.909,0,0,0,1.4,3.582l.262.219a3.878,3.878,0,0,0,3.844.48,35.8,35.8,0,1,1-21.841,27.039,4,4,0,0,0-1.4-3.8A3.206,3.206,0,0,0,18.582,1081.367Z" transform="translate(-0.029 -1034.493)"/>
      </g>
    </g>
    <g id="Group_222" data-name="Group 222" transform="translate(681.636 372.618)">
      <g id="Group_221" data-name="Group 221">
        <path id="Path_205" data-name="Path 205" d="M1618.149,966.89a60.376,60.376,0,0,1-10.746-1,57.653,57.653,0,0,1-4.892-112.176,17.944,17.944,0,0,1,22.365,21.273,18.015,18.015,0,0,1-12.668,13.236,21.934,21.934,0,0,0-15.42,16.119,21.855,21.855,0,0,0,17.429,26.384,22.089,22.089,0,0,0,24.812-15.245,21.779,21.779,0,0,0-6.247-22.409,17.837,17.837,0,0,1-5.417-17.124l.087-.306a17.767,17.767,0,0,1,12.013-13.017,17.5,17.5,0,0,1,17.124,3.669,57.647,57.647,0,0,1-38.44,100.6Zm-10.658-99.9a3.789,3.789,0,0,0-1.136.175,43.67,43.67,0,0,0-30.8,32.238,43.754,43.754,0,0,0,34.465,52.724,43.661,43.661,0,0,0,37.217-75.439,3.5,3.5,0,0,0-3.582-.743,3.8,3.8,0,0,0-2.621,2.8l-.087.306a3.867,3.867,0,0,0,1.223,3.669,35.789,35.789,0,1,1-33.766-7.994,3.942,3.942,0,0,0,2.839-2.927,3.96,3.96,0,0,0-3.757-4.805Z" transform="translate(-1560.401 -853.018)"/>
      </g>
    </g>
    <g id="Group_223" data-name="Group 223" transform="translate(101.709 505.841)">
      <path id="Path_206" data-name="Path 206" d="M294.174,1203.255c-1.4,0-2.752-.044-4.106-.087a74.714,74.714,0,0,1-32.15-8.343c-16.381-8.693-24.418-17.08-25.117-18.478l5.679-10.484,6.116-7.863c.7,1.311,27.214,36.65,85.443,16.6l7.12,20.662C321.737,1200.547,307.322,1203.255,294.174,1203.255Z" transform="translate(-232.8 -1158)"/>
    </g>
    <g id="Group_224" data-name="Group 224" transform="translate(74.539 547.995)">
      <path id="Path_207" data-name="Path 207" d="M270.065,1303.861c-5.373,0-11.052-.131-16.818-.524-18.128-1.136-33.766-4.193-46.522-9.086-17.255-6.6-29.4-16.6-36.125-29.748l19.439-10c10.047,19.57,40.712,25.51,64.65,27a284.292,284.292,0,0,0,53.336-2.053l3.276,21.579A290.3,290.3,0,0,1,270.065,1303.861Z" transform="translate(-170.6 -1254.5)"/>
    </g>
    <g id="Group_225" data-name="Group 225" transform="translate(623.844 467.925)">
      <path id="Path_208" data-name="Path 208" d="M1431.813,1143.057l-3.713-21.535,1.878,10.746-1.878-10.746c.524-.087,54.035-10,72.294-50.322l19.875,9C1497.162,1131.176,1434.434,1142.577,1431.813,1143.057Z" transform="translate(-1428.1 -1071.2)"/>
    </g>
    <g id="Group_226" data-name="Group 226" transform="translate(633.891 473.909)">
      <path id="Path_209" data-name="Path 209" d="M1451.537,1182.137l-.393-21.841h-.044c.131,0,14.939-.524,34.815-10.047,26.69-12.755,49.361-34.728,67.446-65.349l18.783,11.1c-11.314,19.133-24.549,35.514-39.358,48.793a158.83,158.83,0,0,1-38.746,25.773C1470.233,1181.7,1452.279,1182.137,1451.537,1182.137Z" transform="translate(-1451.1 -1084.9)"/>
    </g>
    <g id="Group_227" data-name="Group 227" transform="translate(298.061 694.767)">
      <path id="Path_210" data-name="Path 210" d="M742.145,1659.081H729.127a46.886,46.886,0,0,1-46.827-46.827V1590.5h59.845Zm-38-46.74a24.944,24.944,0,0,0,16.162,23.283v-23.283Z" transform="translate(-682.3 -1590.5)"/>
    </g>
    <g id="Group_228" data-name="Group 228" transform="translate(476.285 694.767)">
      <path id="Path_211" data-name="Path 211" d="M1108.559,1659.081H1090.3V1590.5h65.087v21.754A46.886,46.886,0,0,1,1108.559,1659.081Zm3.582-46.74v24.637a25.018,25.018,0,0,0,21.4-24.637Z" transform="translate(-1090.3 -1590.5)"/>
    </g>
    <g id="Group_229" data-name="Group 229" transform="translate(336.065 694.767)">
      <path id="Path_212" data-name="Path 212" d="M850.331,1741.641A81.114,81.114,0,0,1,769.3,1660.61V1590.5H931.361v70.11A81.114,81.114,0,0,1,850.331,1741.641Zm-59.19-129.3v48.269a59.19,59.19,0,1,0,118.379,0v-48.269Z" transform="translate(-769.3 -1590.5)"/>
    </g>
    <g id="Group_230" data-name="Group 230" transform="translate(311.384 547.339)">
      <path id="Path_213" data-name="Path 213" d="M746.217,1319.834a33.417,33.417,0,1,1,33.417-33.417A33.445,33.445,0,0,1,746.217,1319.834Zm0-55.913a22.5,22.5,0,1,0,22.5,22.5A22.52,22.52,0,0,0,746.217,1263.921Z" transform="translate(-712.8 -1253)"/>
    </g>
    <g id="Group_231" data-name="Group 231" transform="translate(381.713 547.339)">
      <path id="Path_214" data-name="Path 214" d="M907.217,1319.834a33.417,33.417,0,1,1,33.417-33.417A33.445,33.445,0,0,1,907.217,1319.834Zm0-55.913a22.5,22.5,0,1,0,22.5,22.5A22.52,22.52,0,0,0,907.217,1263.921Z" transform="translate(-873.8 -1253)"/>
    </g>
    <g id="Group_232" data-name="Group 232" transform="translate(453.788 547.339)">
      <path id="Path_215" data-name="Path 215" d="M1072.217,1319.834a33.417,33.417,0,1,1,33.417-33.417A33.445,33.445,0,0,1,1072.217,1319.834Zm0-55.913a22.5,22.5,0,1,0,22.5,22.5A22.52,22.52,0,0,0,1072.217,1263.921Z" transform="translate(-1038.8 -1253)"/>
    </g>
    <g id="Group_233" data-name="Group 233" transform="translate(372.758 444.031)">
      <rect id="Rectangle_42" data-name="Rectangle 42" width="86.491" height="21.841"/>
    </g>
    <g id="Group_234" data-name="Group 234" transform="translate(227.296 314.294)">
      <path id="Path_216" data-name="Path 216" d="M566.166,805.554H520.3V719.5h45.866Zm-24.025-21.841h2.184V741.341h-2.184Z" transform="translate(-520.3 -719.5)"/>
    </g>
    <g id="Group_235" data-name="Group 235" transform="translate(551.855 314.294)">
      <path id="Path_217" data-name="Path 217" d="M1309.167,805.554H1263.3V719.5h45.866Zm-24.025-21.841h2.184V741.341h-2.184Z" transform="translate(-1263.3 -719.5)"/>
    </g>
    <g id="Group_236" data-name="Group 236" transform="translate(202.834 333.951)">
      <path id="Path_218" data-name="Path 218" d="M510.6,811.24H464.3V764.5h46.3ZM486.141,789.4h2.621v-3.058h-2.621Z" transform="translate(-464.3 -764.5)"/>
    </g>
    <g id="Group_237" data-name="Group 237" transform="translate(577.191 333.951)">
      <path id="Path_219" data-name="Path 219" d="M1367.6,811.24h-46.3V764.5h46.3ZM1343.141,789.4h2.621v-3.058h-2.621Z" transform="translate(-1321.3 -764.5)"/>
    </g>
    <g id="Group_238" data-name="Group 238" transform="translate(375.16 27.301)">
      <path id="Path_220" data-name="Path 220" d="M899.643,144.186a40.843,40.843,0,1,1,40.843-40.843A40.865,40.865,0,0,1,899.643,144.186Zm0-59.845a19,19,0,1,0,19,19A19.015,19.015,0,0,0,899.643,84.341Z" transform="translate(-858.8 -62.5)"/>
    </g>
    <g id="Group_239" data-name="Group 239" transform="translate(404.209 98.285)">
      <rect id="Rectangle_43" data-name="Rectangle 43" width="21.841" height="88.238"/>
    </g>
    <g id="Group_240" data-name="Group 240" transform="translate(397.657 112.919)">
      <path id="Path_221" data-name="Path 221" d="M940,265.489H913.795a3.495,3.495,0,0,1,0-6.989H940a3.495,3.495,0,1,1,0,6.989Z" transform="translate(-910.3 -258.5)"/>
    </g>
    <g id="Group_241" data-name="Group 241" transform="translate(397.875 129.3)">
      <path id="Path_222" data-name="Path 222" d="M940.5,302.989H914.295a3.495,3.495,0,1,1,0-6.989H940.5a3.495,3.495,0,0,1,0,6.989Z" transform="translate(-910.8 -296)"/>
    </g>
    <g id="Group_242" data-name="Group 242" transform="translate(397.001 326.307)">
      <circle id="Ellipse_34" data-name="Ellipse 34" cx="18.783" cy="18.783" r="18.783"/>
    </g>
    <g id="Group_243" data-name="Group 243" transform="translate(365.113 294.419)">
      <path id="Path_223" data-name="Path 223" d="M886.471,775.343a50.671,50.671,0,1,1,50.672-50.671A50.708,50.708,0,0,1,886.471,775.343Zm0-87.365a36.693,36.693,0,1,0,36.693,36.693A36.745,36.745,0,0,0,886.471,687.978Z" transform="translate(-835.8 -674)"/>
    </g>
    <g id="Group_244" data-name="Group 244" transform="translate(384.77 746.531)">
      <path id="Path_224" data-name="Path 224" d="M939.553,1721.668H887.134a6.334,6.334,0,0,1,0-12.668h52.419a6.334,6.334,0,0,1,0,12.668Z" transform="translate(-880.8 -1709)"/>
    </g>
    <g id="Group_245" data-name="Group 245" transform="translate(384.77 770.993)">
      <path id="Path_225" data-name="Path 225" d="M939.553,1777.668H887.134a6.334,6.334,0,1,1,0-12.668h52.419a6.334,6.334,0,1,1,0,12.668Z" transform="translate(-880.8 -1765)"/>
    </g>
    <circle id="Ellipse_35" data-name="Ellipse 35" cx="18.565" cy="18.565" r="18.565" transform="translate(666.958 103.09)"/>
    <circle id="Ellipse_36" data-name="Ellipse 36" cx="9.173" cy="9.173" r="9.173" transform="translate(184.269 194.386)"/>
    <circle id="Ellipse_37" data-name="Ellipse 37" cx="31.014" cy="31.014" r="31.014" transform="translate(82.926)"/>
  </g>
</svg>
