<svg xmlns="http://www.w3.org/2000/svg" viewBox="4927.332 1347 261.034 683.628">
  <defs>
    <style>
      .cls-1 {
        fill: #f2f2f2;
        opacity: 0.9;
      }
    </style>
  </defs>
  <path id="wrench" class="cls-1" d="M228.1,606.943a97.479,97.479,0,0,1-37.208,76.686V611.905a46,46,0,0,0-45.865-45.865H116.008a46,46,0,0,0-45.865,45.865v71.723a97.632,97.632,0,0,1-11.149-143.09,38.713,38.713,0,0,0,10.437-26.326V239.248a38.973,38.973,0,0,0-16.023-31.4A130.511,130.511,0,0,1,49.781,0V95.913a61.543,61.543,0,0,0,61.353,61.353h38.788a61.543,61.543,0,0,0,61.353-61.353V0a130.551,130.551,0,0,1-3.65,207.87A39.392,39.392,0,0,0,191.6,239.693V513.344a40.6,40.6,0,0,0,10.7,27.505A97.249,97.249,0,0,1,228.1,606.943Z" transform="translate(4927.332 1347)"/>
</svg>
