<svg xmlns="http://www.w3.org/2000/svg" viewBox="0 0 1658.56 2274.04"><defs><style>.cls-1{fill:#4ed5f9;}.cls-2{fill:#fff;}</style></defs><title>About Background</title><g id="Layer_2" data-name="Layer 2"><g id="rhombuses"><rect class="cls-1" x="633.02" y="176.54" width="849" height="849" transform="translate(-115.26 923.82) rotate(-45)"/><path class="cls-2" d="M1057.52,1.41,1657.15,601l-599.63,599.63L457.89,601,1057.52,1.41m0-1.41-601,601,601,601,601-601-601-601Z"/><rect class="cls-1" x="805.21" y="1818.71" width="376.62" height="376.62" transform="translate(-1128.18 1290.37) rotate(-45)"/><path class="cls-2" d="M993.52,1741.41,1259.13,2007,993.52,2272.63,727.91,2007l265.61-265.61m0-1.41-267,267,267,267,267-267-267-267Z"/><rect class="cls-1" x="114.29" y="1127.29" width="548.45" height="548.45" transform="translate(-877.23 685.22) rotate(-45)"/><path class="cls-2" d="M388.52,1014.41l387.11,387.11L388.52,1788.63,1.41,1401.52l387.11-387.11m0-1.41L0,1401.52,388.52,1790,777,1401.52,388.52,1013Z"/><rect class="cls-1" x="1255.98" y="1436.48" width="163.08" height="163.08" transform="translate(-681.65 1390.38) rotate(-45)"/><path class="cls-2" d="M1337.52,1403.41,1452.13,1518l-114.61,114.61L1222.91,1518l114.61-114.61m0-1.41-116,116,116,116,116-116-116-116Z"/></g></g></svg>