<svg xmlns="http://www.w3.org/2000/svg" viewBox="0 0 2791.52 2071.15"><defs><style>.cls-1{fill:#4ed5f9;}</style></defs><title>Graduation Hat</title><g id="Layer_2" data-name="Layer 2"><g id="gradtuation_hat" data-name="gradtuation hat"><path class="cls-1" d="M1324.11,0h0Zm0,1488.14h0Z"/><path class="cls-1" d="M2626.51,704.71,1339.46,4.2A34,34,0,0,0,1324.21,0H1324a34,34,0,0,0-15.25,4.18L21.7,704.71C8.45,711.92,0,727.25,0,744.07s8.45,32.15,21.7,39.36l1287.05,700.51a34,34,0,0,0,15.25,4.18h.21a34,34,0,0,0,15.25-4.18L2626.51,783.43c13.25-7.21,21.7-22.54,21.7-39.36S2639.76,711.92,2626.51,704.71Zm-1302.4,691.12L126.61,744.07,1324.11,92.31,2521.6,744.07Z"/><path class="cls-1" d="M2251,1142v510.16c0,38.06-8.7,75.35-25.17,107.85-16.9,33.38-41.26,60.31-70.44,77.89-129.56,78-266.54,137.47-407.12,176.66a1532.66,1532.66,0,0,1-411.46,56.58c-4.2,0-8.4,0-12.6-.05H1324c-4.2,0-8.4.05-12.6.05a1532.66,1532.66,0,0,1-411.46-56.58c-140.58-39.19-277.56-98.61-407.12-176.66-29.18-17.57-53.54-44.51-70.44-77.89-16.47-32.5-25.17-69.79-25.17-107.85V1142c0-22.13,17-40.06,38-40.06s38,17.93,38,40.06v510.16c0,49.6,22.5,95.2,57.32,116.16,244.93,147.55,512.85,221.23,780.65,221.23q6.41,0,12.82-.05h.21q6.41,0,12.82.05c267.8,0,535.72-73.68,780.65-221.23,34.82-21,57.32-66.56,57.32-116.16V1142c0-22.13,17-40.06,38-40.06S2251,1119.9,2251,1142Z"/><path class="cls-1" d="M2755,1500.95H2504.4c-10.76,0-21-5.44-27.91-14.87a46.33,46.33,0,0,1-8.07-34l107-714.85c2.94-19.65,17.56-34.19,34.94-34.75s32.7,13,36.6,32.44l143.65,714.85a46.62,46.62,0,0,1-7,35.45C2776.66,1495.13,2766.14,1500.95,2755,1500.95Zm-207.33-83.69h161.46l-92.54-460.53Z"/></g></g></svg>