<svg xmlns="http://www.w3.org/2000/svg" viewBox="0 0 2058.74 3015.19"><defs><style>.cls-1{fill:#4ed5f9;}</style></defs><title>Rocket</title><g id="Layer_2" data-name="Layer 2"><g id="rocket"><path class="cls-1" d="M1362.75,388.18q-12-16.8-24.22-33.5c-83.69-113.83-179.27-224.73-284-329.56L1029.25,0l-24.69,24.81-.26.26C899.48,130,803.9,240.85,720.21,354.68q-12.64,17.2-24.94,34.51h668.2Zm-522.32-76q86.82-108.33,188.94-212.9,102,104.39,188.93,212.9Z"/><path class="cls-1" d="M1029.83,389.19h-.21l-.72-1Z"/><path class="cls-1" d="M2038,2151.45l-.18-.2-320.3-331.65q4.38-26.46,8.12-52.62,7.89-54.95,13-108.46c6.27-65.41,9.42-129,9.42-190.33,0-124.71-16.8-253.34-49.92-382.32-31.89-124.18-79.28-250.15-140.85-374.42a2305.34,2305.34,0,0,0-113.56-202.26h-7.05v-2h-816v2H615A2305.38,2305.38,0,0,0,501.45,711.45c-61.57,124.27-109,250.24-140.85,374.42-33.12,129-49.92,257.61-49.92,382.32,0,57.42,2.77,116.87,8.27,177.91,5.08,56.57,12.51,114.52,22.27,173.5l-2.42,2.5-317.69,329-.38.4a76.21,76.21,0,0,0-15.85,79.11l273.9,734.77a77,77,0,0,0,71.8,49.85H454.82a76.61,76.61,0,0,0,74.48-94.59L415.57,2449.29a6.61,6.61,0,0,1,2-6.5l74.71-66.26c18.46,48.63,30.7,76.36,31.36,77.84l9.23,20.82h992.92l9.23-20.82c.41-.93,5.4-12.22,13.63-32.56l2.26-5.6c4.42-11,9.63-24.31,15.47-39.68l74.7,66.25a6.62,6.62,0,0,1,2.05,6.51L1529.44,2920.6a76.61,76.61,0,0,0,74.48,94.59h104.24a77,77,0,0,0,71.8-49.85l273.9-734.79A76.19,76.19,0,0,0,2038,2151.45Zm-1666.84,239a76.46,76.46,0,0,0-23.63,75.29L461.26,2937a6.63,6.63,0,0,1-6.44,8.17H350.58a6.64,6.64,0,0,1-6.2-4.31L70.48,2206.13a6.59,6.59,0,0,1,1.26-6.73l281.91-291.91a2532.23,2532.23,0,0,0,66.89,266.23c15.49,50.11,30.92,94.77,45,133ZM1562.73,2144c-35.77,124.16-68.22,220.82-77.33,247.53,0,0,0,0,0,0q-3.06,7.61-5.53,13.6h-901c-6.42-15.6-16-39.53-27.46-70.38-8.94-22.43-18.94-48.63-29.49-78.11-11.25-31.47-23.12-66.69-34.95-105a2442.45,2442.45,0,0,1-73.35-306.29c-10.95-64.17-19.72-132.31-24.73-202.83a.28.28,0,0,1,0-.09q-6-65.17-7.59-127.61-.63-23.55-.63-46.65c0-292.46,94.81-597.05,273.44-891H1404.6c178.64,293.92,273.46,598.5,273.46,891,0,91.08-7.24,187.6-21.54,287.73C1631.44,1893.46,1593.35,2037.71,1562.73,2144Zm425.53,62.1-273.89,734.77a6.65,6.65,0,0,1-6.21,4.31H1603.92a6.63,6.63,0,0,1-6.44-8.17l113.73-471.31a76.47,76.47,0,0,0-23.64-75.3l-99.43-88.18c12.39-39.39,26.78-86.54,41.73-138.42,21.43-74.35,46.45-167.05,68.33-263.46L1987,2199.4A6.56,6.56,0,0,1,1988.26,2206.11Z"/><path class="cls-1" d="M1029.37,1356.19a219.5,219.5,0,1,1,155.21-64.29A218.06,218.06,0,0,1,1029.37,1356.19Zm0-369c-82.43,0-149.5,67.07-149.5,149.5s67.07,149.5,149.5,149.5,149.5-67.07,149.5-149.5S1111.8,987.19,1029.37,987.19Z"/></g></g></svg>