<svg xmlns="http://www.w3.org/2000/svg" viewBox="0 0 2705.44 2704.06"><defs><style>.cls-1{fill:#4ed5f9;}</style></defs><title>Student Activity</title><g id="Layer_2" data-name="Layer 2"><g id="activity"><path class="cls-1" d="M2705.43,1347.4c3.12,700.28-542.28,1294.18-1241.66,1352.08q-55.7,4.61-110.72,4.58C700.85,2704.06,126.63,2227,19.87,1575.9-52.4,1135.18,72.68,739,391.63,398.43c17.22-18.4,35.93-27.7,54.14-27.7,14.64,0,28.95,6,41.91,18.14,16.9,15.81,26.14,31.75,27.47,47.36s-5.22,32.89-19.48,51.15c-15.06,19.29-31.55,38.53-47.5,57.14-16.31,19-33.18,38.73-49.13,59.12A1224.6,1224.6,0,0,0,217.26,926.41,1208.54,1208.54,0,0,0,553.5,2262.24,1226.14,1226.14,0,0,0,859,2458.12a1213.2,1213.2,0,0,0,348.31,97.53,1176.6,1176.6,0,0,0,366.58-12A1236.84,1236.84,0,0,0,1925,2419.6a1206.19,1206.19,0,0,0,502.69-509.53,1230.11,1230.11,0,0,0,135.66-618.61,1201.57,1201.57,0,0,0-130.5-491.2A1219.24,1219.24,0,0,0,2120,411.91a1198.13,1198.13,0,0,0-713.86-271.06c-5.81-.24-11.52-.34-17-.44-11.54-.22-22.45-.41-32.44-1.75-28.93-3.87-76.68-18.83-71.32-75.49,1.55-16.31,6.75-38.47,22.78-51.48C1320,2,1336.5-1.65,1357.07.68c25.37,2.88,51.23,5.56,76.23,8.15,107,11.08,217.61,22.53,318.77,52.91C2319.63,232.18,2702.75,748.85,2705.43,1347.4Z"/><path class="cls-1" d="M2275.83,1350.58c.1,508.57-399.51,915.09-909.75,925.47-6.25.13-12.43.19-18.65.19-493.51,0-904.18-399.22-919.48-898.43-.85-27.83,3.86-93,65.86-97.07,1.82-.12,3.61-.18,5.38-.18,15.93,0,29.41,4.88,40.14,14.55,16.37,14.76,26.07,40.8,27.31,73.33,3.54,93.53,22.09,183.93,55.12,268.71a784.11,784.11,0,0,0,132.68,223,772.17,772.17,0,0,0,193.55,164,762.8,762.8,0,0,0,237.73,92.37c153.54,31.56,297.27,24.67,427.19-20.51,131-45.56,247.46-129.86,346-250.54,98.89-121.08,158.36-252.16,176.76-389.61,18.36-137.17-4.39-279.19-67.63-422.11-62.65-141.61-152.64-253.11-267.49-331.43-112.23-76.53-248.86-121.79-406.09-134.52-7.37-.6-14.23-.64-20.87-.69-7.77-.06-15.11-.11-20.88-1.14-62.43-11.16-68.94-43.8-67.07-74.26,2.74-44.75,25.22-64.38,72.77-63.74,290.46,4,530.94,120.2,714.75,345.25C2207.5,937.65,2275.68,1131.91,2275.83,1350.58Z"/><path class="cls-1" d="M1847.37,1352.8c-.43,259.66-192.9,466.88-457.66,492.73-99.45,9.72-104.85-41.64-106.62-58.52-3.24-30.87,6.67-44.67,14.4-52.37,14.15-14.09,40.2-23.91,75.35-28.39,61.57-7.86,117.88-27.09,167.34-57.16,48.4-29.42,87.69-67.56,116.77-113.36,54.68-86.1,66.66-189.68,33.73-291.66-23.9-74-63.73-133-118.38-175.41-52.64-40.81-118.95-66.05-197.09-75-36.83-4.23-62.82-13.19-77.24-26.62-7.6-7.07-17.42-20-15-50.49,1.78-22.07,9.92-37.65,24.89-47.62s37-15,64.58-15c5,0,10.17.17,15.51.5C1646,870.65,1847.81,1089.57,1847.37,1352.8Z"/></g></g></svg>